<svg preserveAspectRatio="none" overflow="visible" style="display: block;" width="16.6861" height="20" viewBox="0 0 16.6861 20" fill="none" xmlns="http://www.w3.org/2000/svg">
<g id="Group">
<g id="Vector">
<mask id="path-1-inside-1_0_20" fill="white">
<path d="M8.21686 9.63408C9.54037 9.63408 10.6863 9.15936 11.6229 8.22276C12.5592 7.28635 13.034 6.14057 13.034 4.8169C13.034 3.49363 12.5594 2.34773 11.6228 1.41097C10.6862 0.474686 9.54022 0 8.21686 0C6.89315 0 5.74733 0.474687 4.81093 1.41113C3.87452 2.34757 3.39964 3.49351 3.39964 4.8169C3.39964 6.14057 3.87448 7.28651 4.81097 8.22295C5.74768 9.15924 6.89362 9.63408 8.21682 9.63408H8.21686ZM5.63979 2.23984C6.35831 1.52129 7.20124 1.17203 8.21686 1.17203C9.23233 1.17203 10.0754 1.52129 10.794 2.23984C11.5126 2.95851 11.862 3.80155 11.862 4.81687C11.862 5.83249 11.5126 6.67542 10.794 7.39409C10.0754 8.1128 9.23233 8.46205 8.21686 8.46205C7.20151 8.46205 6.35866 8.11264 5.63979 7.39409C4.92108 6.67557 4.57167 5.83253 4.57167 4.8169C4.57167 3.80156 4.92108 2.95851 5.63979 2.23984ZM16.6456 15.379C16.6186 14.9893 16.564 14.5642 16.4836 14.1153C16.4024 13.663 16.2979 13.2354 16.1727 12.8447C16.0434 12.4408 15.8677 12.0419 15.6503 11.6597C15.4249 11.2629 15.16 10.9175 14.8628 10.6332C14.552 10.3358 14.1714 10.0967 13.7313 9.92228C13.2928 9.74885 12.8068 9.66096 12.287 9.66096C12.0828 9.66096 11.8854 9.74471 11.504 9.99299C11.233 10.1695 10.9611 10.3448 10.6885 10.5188C10.4265 10.6857 10.0715 10.8421 9.63315 10.9837C9.20545 11.1221 8.77119 11.1923 8.34241 11.1923C7.91397 11.1923 7.47967 11.1221 7.05167 10.9837C6.61378 10.8422 6.2587 10.6859 5.99714 10.5189C5.69362 10.325 5.41901 10.148 5.18081 9.99279C4.7998 9.74455 4.60234 9.66076 4.39819 9.66076C3.87816 9.66076 3.39234 9.74881 2.95394 9.92248C2.51417 10.0966 2.13347 10.3357 1.82234 10.6334C1.52511 10.9178 1.26023 11.2631 1.035 11.6597C0.817889 12.0419 0.642108 12.4406 0.512694 12.8448C0.387695 13.2356 0.283203 13.663 0.202031 14.1153C0.121445 14.5636 0.0669921 14.9888 0.0399609 15.3795C0.0133984 15.7614 0 16.1589 0 16.5605C0 17.6045 0.331874 18.4497 0.986326 19.073C1.63269 19.6881 2.48781 20 3.52796 20H13.1581C14.1979 20 15.0531 19.6881 15.6996 19.073C16.3542 18.4501 16.6861 17.6047 16.6861 16.5603C16.6859 16.1574 16.6724 15.7599 16.6456 15.379ZM14.8915 18.2238C14.4644 18.6303 13.8974 18.8279 13.1579 18.8279H3.528C2.78843 18.8279 2.2214 18.6303 1.79445 18.224C1.37562 17.8253 1.17207 17.281 1.17207 16.5605C1.17207 16.1857 1.18441 15.8157 1.20918 15.4605C1.23324 15.112 1.28254 14.7291 1.35566 14.3223C1.42781 13.9206 1.51965 13.5435 1.6289 13.2022C1.73375 12.8749 1.87672 12.5508 2.05402 12.2386C2.22324 11.941 2.41793 11.6858 2.63277 11.4801C2.83374 11.2877 3.08706 11.1302 3.3855 11.0121C3.66152 10.9028 3.97175 10.843 4.30851 10.834C4.34952 10.8559 4.42265 10.8975 4.54105 10.9747C4.78198 11.1317 5.05968 11.3109 5.36671 11.5069C5.7128 11.7276 6.15862 11.9269 6.69132 12.0988C7.23588 12.2749 7.79131 12.3643 8.3426 12.3643C8.89393 12.3643 9.44947 12.2749 9.99377 12.099C10.5269 11.9267 10.9726 11.7276 11.3192 11.5066C11.6333 11.3058 11.9033 11.1319 12.1442 10.9747C12.2626 10.8976 12.3357 10.8558 12.3767 10.834C12.7136 10.843 13.0238 10.9028 13.3 11.0121C13.5983 11.1302 13.8517 11.2878 14.0526 11.4801C14.2674 11.6856 14.4621 11.9409 14.6313 12.2388C14.8088 12.5508 14.952 12.8751 15.0566 13.202C15.166 13.5438 15.258 13.9207 15.33 14.3222C15.403 14.7297 15.4524 15.1127 15.4765 15.4606V15.4609C15.5014 15.8148 15.5139 16.1847 15.5141 16.5605C15.5139 17.2812 15.3104 17.8253 14.8915 18.2238H14.8915Z"/>
</mask>
<path d="M8.21686 9.63408C9.54037 9.63408 10.6863 9.15936 11.6229 8.22276C12.5592 7.28635 13.034 6.14057 13.034 4.8169C13.034 3.49363 12.5594 2.34773 11.6228 1.41097C10.6862 0.474686 9.54022 0 8.21686 0C6.89315 0 5.74733 0.474687 4.81093 1.41113C3.87452 2.34757 3.39964 3.49351 3.39964 4.8169C3.39964 6.14057 3.87448 7.28651 4.81097 8.22295C5.74768 9.15924 6.89362 9.63408 8.21682 9.63408H8.21686ZM5.63979 2.23984C6.35831 1.52129 7.20124 1.17203 8.21686 1.17203C9.23233 1.17203 10.0754 1.52129 10.794 2.23984C11.5126 2.95851 11.862 3.80155 11.862 4.81687C11.862 5.83249 11.5126 6.67542 10.794 7.39409C10.0754 8.1128 9.23233 8.46205 8.21686 8.46205C7.20151 8.46205 6.35866 8.11264 5.63979 7.39409C4.92108 6.67557 4.57167 5.83253 4.57167 4.8169C4.57167 3.80156 4.92108 2.95851 5.63979 2.23984ZM16.6456 15.379C16.6186 14.9893 16.564 14.5642 16.4836 14.1153C16.4024 13.663 16.2979 13.2354 16.1727 12.8447C16.0434 12.4408 15.8677 12.0419 15.6503 11.6597C15.4249 11.2629 15.16 10.9175 14.8628 10.6332C14.552 10.3358 14.1714 10.0967 13.7313 9.92228C13.2928 9.74885 12.8068 9.66096 12.287 9.66096C12.0828 9.66096 11.8854 9.74471 11.504 9.99299C11.233 10.1695 10.9611 10.3448 10.6885 10.5188C10.4265 10.6857 10.0715 10.8421 9.63315 10.9837C9.20545 11.1221 8.77119 11.1923 8.34241 11.1923C7.91397 11.1923 7.47967 11.1221 7.05167 10.9837C6.61378 10.8422 6.2587 10.6859 5.99714 10.5189C5.69362 10.325 5.41901 10.148 5.18081 9.99279C4.7998 9.74455 4.60234 9.66076 4.39819 9.66076C3.87816 9.66076 3.39234 9.74881 2.95394 9.92248C2.51417 10.0966 2.13347 10.3357 1.82234 10.6334C1.52511 10.9178 1.26023 11.2631 1.035 11.6597C0.817889 12.0419 0.642108 12.4406 0.512694 12.8448C0.387695 13.2356 0.283203 13.663 0.202031 14.1153C0.121445 14.5636 0.0669921 14.9888 0.0399609 15.3795C0.0133984 15.7614 0 16.1589 0 16.5605C0 17.6045 0.331874 18.4497 0.986326 19.073C1.63269 19.6881 2.48781 20 3.52796 20H13.1581C14.1979 20 15.0531 19.6881 15.6996 19.073C16.3542 18.4501 16.6861 17.6047 16.6861 16.5603C16.6859 16.1574 16.6724 15.7599 16.6456 15.379ZM14.8915 18.2238C14.4644 18.6303 13.8974 18.8279 13.1579 18.8279H3.528C2.78843 18.8279 2.2214 18.6303 1.79445 18.224C1.37562 17.8253 1.17207 17.281 1.17207 16.5605C1.17207 16.1857 1.18441 15.8157 1.20918 15.4605C1.23324 15.112 1.28254 14.7291 1.35566 14.3223C1.42781 13.9206 1.51965 13.5435 1.6289 13.2022C1.73375 12.8749 1.87672 12.5508 2.05402 12.2386C2.22324 11.941 2.41793 11.6858 2.63277 11.4801C2.83374 11.2877 3.08706 11.1302 3.3855 11.0121C3.66152 10.9028 3.97175 10.843 4.30851 10.834C4.34952 10.8559 4.42265 10.8975 4.54105 10.9747C4.78198 11.1317 5.05968 11.3109 5.36671 11.5069C5.7128 11.7276 6.15862 11.9269 6.69132 12.0988C7.23588 12.2749 7.79131 12.3643 8.3426 12.3643C8.89393 12.3643 9.44947 12.2749 9.99377 12.099C10.5269 11.9267 10.9726 11.7276 11.3192 11.5066C11.6333 11.3058 11.9033 11.1319 12.1442 10.9747C12.2626 10.8976 12.3357 10.8558 12.3767 10.834C12.7136 10.843 13.0238 10.9028 13.3 11.0121C13.5983 11.1302 13.8517 11.2878 14.0526 11.4801C14.2674 11.6856 14.4621 11.9409 14.6313 12.2388C14.8088 12.5508 14.952 12.8751 15.0566 13.202C15.166 13.5438 15.258 13.9207 15.33 14.3222C15.403 14.7297 15.4524 15.1127 15.4765 15.4606V15.4609C15.5014 15.8148 15.5139 16.1847 15.5141 16.5605C15.5139 17.2812 15.3104 17.8253 14.8915 18.2238H14.8915Z" fill="#16191C"/>
<path d="M11.6229 8.22276L12.5264 9.12628L12.5265 9.12622L11.6229 8.22276ZM11.6228 1.41097L12.5264 0.507525L12.5261 0.507299L11.6228 1.41097ZM4.81097 8.22295L3.90746 9.12649L3.90765 9.12668L4.81097 8.22295ZM5.63979 2.23984L6.54329 3.14339L6.54334 3.14334L5.63979 2.23984ZM10.794 2.23984L11.6976 1.33639L11.6975 1.33624L10.794 2.23984ZM10.794 7.39409L11.6976 8.29759L11.6976 8.29754L10.794 7.39409ZM5.63979 7.39409L4.73639 8.29773L4.73647 8.29781L5.63979 7.39409ZM16.6456 15.379L15.3709 15.4674L15.371 15.4684L16.6456 15.379ZM16.4836 14.1153L17.7413 13.8899L17.7412 13.8896L16.4836 14.1153ZM16.1727 12.8447L17.3896 12.4549L17.3896 12.4549L16.1727 12.8447ZM15.6503 11.6597L14.5393 12.2909L14.5396 12.2915L15.6503 11.6597ZM14.8628 10.6332L13.9794 11.5565L13.9797 11.5567L14.8628 10.6332ZM13.7313 9.92229L14.2022 8.73444L14.2013 8.73407L13.7313 9.92229ZM11.504 9.99299L10.8068 8.92218L10.8068 8.92222L11.504 9.99299ZM10.6885 10.5188L11.3751 11.5963L11.3759 11.5959L10.6885 10.5188ZM9.63315 10.9837L9.24041 9.76781L9.23975 9.76802L9.63315 10.9837ZM7.05167 10.9837L7.4448 9.76793L7.44452 9.76784L7.05167 10.9837ZM5.99714 10.5189L5.30911 11.5956L5.30965 11.596L5.99714 10.5189ZM5.18081 9.99279L4.48329 11.0634L4.48329 11.0634L5.18081 9.99279ZM2.95394 9.92248L3.42429 11.1105L3.42455 11.1104L2.95394 9.92248ZM1.82234 10.6334L0.938974 9.71014L0.938934 9.71017L1.82234 10.6334ZM1.035 11.6597L2.14605 12.2908L2.1461 12.2907L1.035 11.6597ZM0.512694 12.8448L-0.704234 12.4552L-0.704335 12.4555L0.512694 12.8448ZM0.202031 14.1153L1.45965 14.3414L1.45971 14.341L0.202031 14.1153ZM0.0399609 15.3795L1.31466 15.4681L1.31469 15.4677L0.0399609 15.3795ZM0.986326 19.073L0.105078 19.9982L0.105426 19.9986L0.986326 19.073ZM15.6996 19.073L16.5803 19.9988L16.5804 19.9987L15.6996 19.073ZM16.6861 16.5603H17.9638V16.5598L16.6861 16.5603ZM14.8915 18.2238V16.9461H14.3806L14.0106 17.2982L14.8915 18.2238ZM1.79445 18.224L0.913381 19.1495L0.913604 19.1497L1.79445 18.224ZM1.20918 15.4605L2.48386 15.5493L2.48392 15.5485L1.20918 15.4605ZM1.35566 14.3223L2.61328 14.5484L2.61332 14.5482L1.35566 14.3223ZM1.6289 13.2022L0.41202 12.8124L0.411953 12.8127L1.6289 13.2022ZM2.05402 12.2386L0.943274 11.607L0.942935 11.6076L2.05402 12.2386ZM2.63277 11.4801L3.51636 12.4031L3.51644 12.403L2.63277 11.4801ZM3.3855 11.0121L3.85563 12.2003L3.85594 12.2002L3.3855 11.0121ZM4.30851 10.834L4.90981 9.70655L4.61185 9.54764L4.27428 9.55669L4.30851 10.834ZM4.54105 10.9747L3.84322 12.0451L3.84336 12.0452L4.54105 10.9747ZM5.36671 11.5069L4.67903 12.5839L4.67977 12.5843L5.36671 11.5069ZM6.69132 12.0988L7.08446 10.883L7.08384 10.8828L6.69132 12.0988ZM9.99377 12.099L9.60089 10.8831L9.60077 10.8831L9.99377 12.099ZM11.3192 11.5066L12.0061 12.584L12.0072 12.5833L11.3192 11.5066ZM12.1442 10.9747L11.4472 9.90372L11.4459 9.90459L12.1442 10.9747ZM12.3767 10.834L12.4108 9.55672L12.0746 9.54775L11.7775 9.70546L12.3767 10.834ZM13.3 11.0121L13.7704 9.82406L13.7701 9.82391L13.3 11.0121ZM14.0526 11.4801L14.9359 10.5568L14.9359 10.5567L14.0526 11.4801ZM14.6313 12.2388L13.5203 12.87L13.5206 12.8705L14.6313 12.2388ZM15.0566 13.202L13.8396 13.5915L13.8397 13.5916L15.0566 13.202ZM15.33 14.3222L16.5878 14.0971L16.5877 14.0965L15.33 14.3222ZM15.4765 15.4606H16.7543V15.4164L16.7513 15.3723L15.4765 15.4606ZM15.4765 15.4609H14.1988V15.5058L14.2019 15.5506L15.4765 15.4609ZM15.5141 16.5605L16.7918 16.5608V16.5599L15.5141 16.5605ZM14.8915 18.2238V19.5016H15.4023L15.7723 19.1495L14.8915 18.2238ZM8.21686 9.63408V10.9119C9.87945 10.9119 11.3503 10.3024 12.5264 9.12628L11.6229 8.22276L10.7194 7.31923C10.0223 8.01634 9.20129 8.35631 8.21686 8.35631V9.63408ZM11.6229 8.22276L12.5265 9.12622C13.7022 7.95039 14.3118 6.47971 14.3118 4.8169H13.034H11.7563C11.7563 5.80144 11.4162 6.62232 10.7193 7.31929L11.6229 8.22276ZM13.034 4.8169H14.3118C14.3118 3.15451 13.7023 1.68372 12.5264 0.507525L11.6228 1.41097L10.7192 2.31442C11.4164 3.01174 11.7563 3.83274 11.7563 4.8169H13.034ZM11.6228 1.41097L12.5261 0.507299C11.3501 -0.66836 9.87926 -1.27778 8.21686 -1.27778V0V1.27778C9.20117 1.27778 10.0222 1.61773 10.7194 2.31465L11.6228 1.41097ZM8.21686 0V-1.27778C6.55413 -1.27778 5.08333 -0.66837 3.90739 0.507625L4.81093 1.41113L5.71447 2.31463C6.41133 1.61774 7.23217 1.27778 8.21686 1.27778V0ZM4.81093 1.41113L3.90739 0.507625C2.73157 1.68349 2.12187 3.15434 2.12187 4.8169H3.39964H4.67742C4.67742 3.83268 5.01748 3.01166 5.71447 2.31463L4.81093 1.41113ZM3.39964 4.8169H2.12187C2.12187 6.47968 2.73149 7.95057 3.90746 9.12649L4.81097 8.22295L5.71447 7.31941C5.01748 6.62245 4.67742 5.80146 4.67742 4.8169H3.39964ZM4.81097 8.22295L3.90765 9.12668C5.08369 10.3022 6.55443 10.9119 8.21682 10.9119V9.63408V8.35631C7.23281 8.35631 6.41167 8.01629 5.71428 7.31922L4.81097 8.22295ZM8.21682 9.63408V10.9119H8.21686V9.63408V8.35631H8.21682V9.63408ZM5.63979 2.23984L6.54334 3.14334C7.02236 2.6643 7.54032 2.4498 8.21686 2.4498V1.17203V-0.105746C6.86215 -0.105746 5.69426 0.378274 4.73625 1.33634L5.63979 2.23984ZM8.21686 1.17203V2.4498C8.89323 2.4498 9.41137 2.6643 9.89059 3.14344L10.794 2.23984L11.6975 1.33624C10.7394 0.378276 9.57142 -0.105746 8.21686 -0.105746V1.17203ZM10.794 2.23984L9.89044 3.14329C10.3697 3.62263 10.5842 4.14082 10.5842 4.81687H11.862H13.1398C13.1398 3.46229 12.6555 2.29439 11.6976 1.33639L10.794 2.23984ZM11.862 4.81687H10.5842C10.5842 5.49324 10.3697 6.01131 9.89044 6.49064L10.794 7.39409L11.6976 8.29754C12.6555 7.33953 13.1398 6.17174 13.1398 4.81687H11.862ZM10.794 7.39409L9.89049 6.49059C9.4113 6.9698 8.89321 7.18428 8.21686 7.18428V8.46205V9.73983C9.57144 9.73983 10.7394 9.25579 11.6976 8.29759L10.794 7.39409ZM8.21686 8.46205V7.18428C7.54087 7.18428 7.02278 6.96981 6.54312 6.49037L5.63979 7.39409L4.73647 8.29781C5.69454 9.25547 6.86215 9.73983 8.21686 9.73983V8.46205ZM5.63979 7.39409L6.54319 6.49044C6.06401 6.01138 5.84945 5.49332 5.84945 4.8169H4.57167H3.2939C3.2939 6.17173 3.77816 7.33976 4.73639 8.29773L5.63979 7.39409ZM4.57167 4.8169H5.84945C5.84945 4.14083 6.06396 3.6227 6.54329 3.14339L5.63979 2.23984L4.73629 1.33629C3.77821 2.29432 3.2939 3.46228 3.2939 4.8169H4.57167ZM16.6456 15.379L17.9203 15.2906C17.8896 14.8479 17.8285 14.3765 17.7413 13.8899L16.4836 14.1153L15.2258 14.3407C15.2995 14.7518 15.3476 15.1307 15.3709 15.4674L16.6456 15.379ZM16.4836 14.1153L17.7412 13.8896C17.6513 13.3885 17.534 12.9056 17.3896 12.4549L16.1727 12.8447L14.9559 13.2344C15.0618 13.5653 15.1535 13.9375 15.2259 14.341L16.4836 14.1153ZM16.1727 12.8447L17.3896 12.4549C17.2325 11.9643 17.0208 11.4846 16.7609 11.0279L15.6503 11.6597L14.5396 12.2915C14.7147 12.5993 14.8542 12.9172 14.9559 13.2344L16.1727 12.8447ZM15.6503 11.6597L16.7613 11.0285C16.4814 10.5359 16.1425 10.0889 15.7459 9.70972L14.8628 10.6332L13.9797 11.5567C14.1776 11.746 14.3684 11.99 14.5393 12.2909L15.6503 11.6597ZM14.8628 10.6332L15.7461 9.70996C15.3047 9.28763 14.7801 8.96351 14.2022 8.73444L13.7313 9.92229L13.2605 11.1101C13.5627 11.23 13.7992 11.384 13.9794 11.5565L14.8628 10.6332ZM13.7313 9.92229L14.2013 8.73407C13.5985 8.49564 12.9511 8.38318 12.287 8.38318V9.66096V10.9387C12.6625 10.9387 12.9872 11.0021 13.2614 11.1105L13.7313 9.92229ZM12.287 9.66096V8.38318C11.6735 8.38318 11.1966 8.66841 10.8068 8.92218L11.504 9.99299L12.2012 11.0638C12.2832 11.0104 12.3438 10.9734 12.3894 10.9475C12.4352 10.9216 12.4568 10.9119 12.4608 10.9102C12.4632 10.9092 12.4437 10.9177 12.4074 10.9257C12.3686 10.9343 12.3269 10.9387 12.287 10.9387V9.66096ZM11.504 9.99299L10.8068 8.92222C10.539 9.09659 10.2704 9.26974 10.001 9.44166L10.6885 10.5188L11.3759 11.5959C11.6518 11.4198 11.927 11.2424 12.2013 11.0638L11.504 9.99299ZM10.6885 10.5188L10.0018 9.44119C9.864 9.52898 9.61992 9.64522 9.24041 9.76781L9.63315 10.9837L10.0259 12.1996C10.5232 12.039 10.9889 11.8425 11.3751 11.5963L10.6885 10.5188ZM9.63315 10.9837L9.23975 9.76802C8.93291 9.86731 8.63123 9.91455 8.34241 9.91455V11.1923V12.4701C8.91116 12.4701 9.47799 12.3769 10.0265 12.1994L9.63315 10.9837ZM8.34241 11.1923V9.91455C8.05402 9.91455 7.75221 9.86734 7.4448 9.76793L7.05167 10.9837L6.65853 12.1995C7.20714 12.3769 7.77392 12.4701 8.34241 12.4701V11.1923ZM7.05167 10.9837L7.44452 9.76784C7.06506 9.64524 6.82134 9.52913 6.68462 9.44186L5.99714 10.5189L5.30965 11.596C5.69605 11.8426 6.1625 12.0393 6.65881 12.1996L7.05167 10.9837ZM5.99714 10.5189L6.68516 9.4422C6.38404 9.24979 6.11269 9.07488 5.87833 8.9222L5.18081 9.99279L4.48329 11.0634C4.72534 11.2211 5.0032 11.4002 5.30911 11.5956L5.99714 10.5189ZM5.18081 9.99279L5.87833 8.9222C5.48873 8.66836 5.01174 8.38299 4.39819 8.38299V9.66076V10.9385C4.35821 10.9385 4.31645 10.934 4.27767 10.9255C4.24129 10.9175 4.22176 10.909 4.22411 10.91C4.22809 10.9117 4.24969 10.9213 4.29537 10.9472C4.3409 10.9731 4.40146 11.0101 4.48329 11.0634L5.18081 9.99279ZM4.39819 9.66076V8.38299C3.73358 8.38299 3.08619 8.4957 2.48333 8.73453L2.95394 9.92248L3.42455 11.1104C3.69848 11.0019 4.02273 10.9385 4.39819 10.9385V9.66076ZM2.95394 9.92248L2.48359 8.73442C1.90565 8.96323 1.38073 9.28746 0.938974 9.71014L1.82234 10.6334L2.70571 11.5566C2.88622 11.3839 3.1227 11.2299 3.42429 11.1105L2.95394 9.92248ZM1.82234 10.6334L0.938934 9.71017C0.542864 10.0892 0.203844 10.5357 -0.0761013 11.0287L1.035 11.6597L2.1461 12.2907C2.31662 11.9904 2.50736 11.7464 2.70575 11.5566L1.82234 10.6334ZM1.035 11.6597L-0.0760529 11.0286C-0.335042 11.4845 -0.546952 11.9639 -0.704234 12.4552L0.512694 12.8448L1.72962 13.2344C1.83117 12.9173 1.97082 12.5992 2.14605 12.2908L1.035 11.6597ZM0.512694 12.8448L-0.704335 12.4555C-0.848375 12.9058 -0.965713 13.3884 -1.05565 13.8896L0.202031 14.1153L1.45971 14.341C1.53212 13.9375 1.62376 13.5654 1.72972 13.2341L0.512694 12.8448ZM0.202031 14.1153L-1.05559 13.8892C-1.14312 14.3762 -1.20408 14.8479 -1.23477 15.2913L0.0399609 15.3795L1.31469 15.4677C1.33807 15.1298 1.38601 14.751 1.45965 14.3414L0.202031 14.1153ZM0.0399609 15.3795L-1.23474 15.2908C-1.26346 15.7038 -1.27778 16.1309 -1.27778 16.5605H0H1.27778C1.27778 16.1868 1.29026 15.819 1.31466 15.4681L0.0399609 15.3795ZM0 16.5605H-1.27778C-1.27778 17.8951 -0.842401 19.0958 0.105079 19.9982L0.986326 19.073L1.86757 18.1477C1.50615 17.8035 1.27778 17.3139 1.27778 16.5605H0ZM0.986326 19.073L0.105426 19.9986C1.02848 20.877 2.21817 21.2777 3.52796 21.2777V20V18.7222C2.75744 18.7222 2.23691 18.4992 1.86723 18.1474L0.986326 19.073ZM3.52796 20V21.2777H13.1581V20V18.7222H3.52796V20ZM13.1581 20V21.2777C14.4677 21.2777 15.6572 20.8769 16.5803 19.9988L15.6996 19.073L14.8188 18.1473C14.4489 18.4992 13.9282 18.7222 13.1581 18.7222V20ZM15.6996 19.073L16.5804 19.9987C17.5286 19.0964 17.9638 17.895 17.9638 16.5603H16.6861H15.4083C15.4083 17.3143 15.1798 17.8038 14.8188 18.1473L15.6996 19.073ZM16.6861 16.5603L17.9638 16.5598C17.9637 16.129 17.9492 15.7018 17.9203 15.2896L16.6456 15.379L15.371 15.4684C15.3955 15.8179 15.4081 16.1857 15.4083 16.5608L16.6861 16.5603ZM14.8915 18.2238L14.0106 17.2982C13.8775 17.4249 13.6566 17.5502 13.1579 17.5502V18.8279V20.1057C14.1381 20.1057 15.0513 19.8357 15.7724 19.1494L14.8915 18.2238ZM13.1579 18.8279V17.5502H3.528V18.8279V20.1057H13.1579V18.8279ZM3.528 18.8279V17.5502C3.02906 17.5502 2.80821 17.4249 2.6753 17.2984L1.79445 18.224L0.913604 19.1497C1.6346 19.8358 2.5478 20.1057 3.528 20.1057V18.8279ZM1.79445 18.224L2.67552 17.2986C2.56963 17.1978 2.44984 17.0231 2.44984 16.5605H1.17207H-0.105707C-0.105707 17.5389 0.181618 18.4528 0.913381 19.1495L1.79445 18.224ZM1.17207 16.5605H2.44984C2.44984 16.2133 2.46129 15.873 2.48386 15.5493L1.20918 15.4605L-0.065504 15.3716C-0.0924683 15.7584 -0.105707 16.1581 -0.105707 16.5605H1.17207ZM1.20918 15.4605L2.48392 15.5485C2.50426 15.2538 2.54691 14.9176 2.61328 14.5484L1.35566 14.3223L0.0980434 14.0962C0.0181614 14.5406 -0.0377847 14.9701 -0.0655632 15.3725L1.20918 15.4605ZM1.35566 14.3223L2.61332 14.5482C2.67694 14.1939 2.75605 13.8723 2.84585 13.5917L1.6289 13.2022L0.411953 12.8127C0.283245 13.2147 0.178679 13.6472 0.0980048 14.0965L1.35566 14.3223ZM1.6289 13.2022L2.84579 13.592C2.92261 13.3521 3.02936 13.1087 3.1651 12.8696L2.05402 12.2386L0.942935 11.6076C0.724074 11.9929 0.544888 12.3976 0.41202 12.8124L1.6289 13.2022ZM2.05402 12.2386L3.16476 12.8702C3.28197 12.6641 3.40345 12.5112 3.51636 12.4031L2.63277 11.4801L1.74918 10.5571C1.4324 10.8603 1.16451 11.2179 0.943274 11.607L2.05402 12.2386ZM2.63277 11.4801L3.51644 12.403C3.58106 12.3412 3.68745 12.2668 3.85563 12.2003L3.3855 11.0121L2.91537 9.82398C2.48668 9.99361 2.08642 10.2342 1.7491 10.5571L2.63277 11.4801ZM3.3855 11.0121L3.85594 12.2002C3.97526 12.1529 4.13527 12.1169 4.34273 12.1113L4.30851 10.834L4.27428 9.55669C3.80823 9.56917 3.34777 9.65276 2.91507 9.8241L3.3855 11.0121ZM4.30851 10.834L3.7072 11.9615C3.70944 11.9626 3.75012 11.9844 3.84322 12.0451L4.54105 10.9747L5.23887 9.90431C5.09517 9.81063 4.98961 9.74911 4.90981 9.70655L4.30851 10.834ZM4.54105 10.9747L3.84336 12.0452C4.08801 12.2046 4.36907 12.386 4.67903 12.5839L5.36671 11.5069L6.05439 10.43C5.75029 10.2358 5.47595 10.0588 5.23874 9.90422L4.54105 10.9747ZM5.36671 11.5069L4.67977 12.5843C5.14401 12.8803 5.69709 13.1206 6.2988 13.3148L6.69132 12.0988L7.08384 10.8828C6.62016 10.7331 6.28159 10.5749 6.05365 10.4295L5.36671 11.5069ZM6.69132 12.0988L6.29817 13.3146C6.96462 13.5301 7.65255 13.6421 8.3426 13.6421V12.3643V11.0865C7.93008 11.0865 7.50715 11.0197 7.08446 10.883L6.69132 12.0988ZM8.3426 12.3643V13.6421C9.03263 13.6421 9.72062 13.5301 10.3868 13.3148L9.99377 12.099L9.60077 10.8831C9.17832 11.0197 8.75523 11.0865 8.3426 11.0865V12.3643ZM9.99377 12.099L10.3866 13.3148C10.9884 13.1204 11.5413 12.8804 12.0061 12.584L11.3192 11.5066L10.6322 10.4292C10.4039 10.5748 10.0654 10.733 9.60089 10.8831L9.99377 12.099ZM11.3192 11.5066L12.0072 12.5833C12.3236 12.3811 12.5971 12.2049 12.8424 12.0448L12.1442 10.9747L11.4459 9.90459C11.2094 10.0589 10.9431 10.2306 10.6311 10.4299L11.3192 11.5066ZM12.1442 10.9747L12.8411 12.0457C12.9364 11.9836 12.9763 11.9624 12.9759 11.9626L12.3767 10.834L11.7775 9.70546C11.6951 9.74925 11.5887 9.81164 11.4472 9.90372L12.1442 10.9747ZM12.3767 10.834L12.3427 12.1114C12.5501 12.1169 12.7102 12.1529 12.83 12.2003L13.3 11.0121L13.7701 9.82391C13.3375 9.65277 12.8772 9.56916 12.4108 9.55672L12.3767 10.834ZM13.3 11.0121L12.8296 12.2001C12.9975 12.2666 13.1043 12.3411 13.1693 12.4034L14.0526 11.4801L14.9359 10.5567C14.5991 10.2345 14.1992 9.99383 13.7704 9.82406L13.3 11.0121ZM14.0526 11.4801L13.1693 12.4033C13.2819 12.5111 13.4032 12.6638 13.5203 12.87L14.6313 12.2388L15.7423 11.6076C15.521 11.2181 15.253 10.8601 14.9359 10.5568L14.0526 11.4801ZM14.6313 12.2388L13.5206 12.8705C13.6564 13.1092 13.7631 13.3525 13.8396 13.5915L15.0566 13.202L16.2736 12.8126C16.1408 12.3976 15.9612 11.9924 15.742 11.6071L14.6313 12.2388ZM15.0566 13.202L13.8397 13.5916C13.9298 13.873 14.009 14.1945 14.0724 14.5478L15.33 14.3222L16.5877 14.0965C16.5071 13.6469 16.4023 13.2146 16.2736 12.8125L15.0566 13.202ZM15.33 14.3222L14.0723 14.5472C14.1386 14.9183 14.1814 15.255 14.2018 15.5489L15.4765 15.4606L16.7513 15.3723C16.7234 14.9705 16.6673 14.5412 16.5878 14.0971L15.33 14.3222ZM15.4765 15.4606H14.1988V15.4609H15.4765H16.7543V15.4606H15.4765ZM15.4765 15.4609L14.2019 15.5506C14.2246 15.8726 14.2362 16.2127 14.2363 16.561L15.5141 16.5605L16.7918 16.5599C16.7917 16.1566 16.7783 15.7569 16.7512 15.3713L15.4765 15.4609ZM15.5141 16.5605L14.2363 16.5602C14.2362 17.0233 14.1163 17.1977 14.0107 17.2981L14.8915 18.2238L15.7723 19.1495C16.5044 18.453 16.7916 17.5391 16.7918 16.5608L15.5141 16.5605ZM14.8915 18.2238V16.9461H14.8915V18.2238V19.5016H14.8915V18.2238Z" fill="white" fill-opacity="0.2" mask="url(#path-1-inside-1_0_20)"/>
</g>
</g>
</svg>
